# xmcd
#
# Track frame offsets: 
#        150
#        12000
#        28687
#        46575
#        63000
#        80212
#        100987
#        121050
#        126105
#        141675
#        154762
#        173287
#        192300
#
# Disc length: 2848 seconds
#
# Revision: 1
# Processed by: cddbd v1.5.2PL0 Copyright (c) Steve Scherf et al.
# Submitted via: ExactAudioCopyFreeDBPlugin 1.0
#
DISCID=a10b1e0d
DTITLE=山崎まさよし - IN MY HOUSE
DYEAR=2009
DGENRE=Blues
TTITLE0=マイシューズ
TTITLE1=春も嵐も【ハウス食品「ウコンの力」CMソング】
TTITLE2=バビロンの住人
TTITLE3=深海魚【NHK土曜ドラマ「監査法人」主題歌】
TTITLE4=Greeting Melody
TTITLE5=五月の雨
TTITLE6=追憶
TTITLE7=Change the World
TTITLE8=Exit
TTITLE9=ロンサムライダー
TTITLE10=真夜中のBoon Boon【関西テレビ・フジテレビ系火曜22時ドラマ「あしたの、喜多善男~世界一不運な男の奇跡の、11日間
TTITLE10=~」主題歌】
TTITLE11=ア・リ・ガ・ト
TTITLE12=Heart of Winter【ハウス食品「ウコンの力」CMソング】
EXTD=YEAR: 2009
EXTT0=
EXTT1=
EXTT2=
EXTT3=
EXTT4=
EXTT5=
EXTT6=
EXTT7=
EXTT8=
EXTT9=
EXTT10=
EXTT11=
EXTT12=
PLAYORDER=
